<svg xmlns="http://www.w3.org/2000/svg" viewBox="0 0 500 140">
  <defs>
    <linearGradient id="prismGradient" x1="0%" y1="0%" x2="100%" y2="100%">
      <stop offset="0%" stop-color="#1e66f5"/>
      <stop offset="100%" stop-color="#8839ef"/>
    </linearGradient>
  </defs>
  
  <!-- Light Background -->
  <rect width="500" height="140" fill="#eff1f5" rx="10"/>
  
  <!-- Terraform-style Logo -->
  <g transform="translate(25, 30)">
    <polygon points="0,0 25,15 25,55 0,40" fill="#844fba" opacity="0.9"/>
    <polygon points="30,18 55,33 55,73 30,58" fill="#844fba" opacity="0.7"/>
    <polygon points="30,0 55,15 55,55 30,40" fill="#5c4ee5" opacity="0.9"/>
  </g>
  
  <!-- Arrow going into prism -->
  <line x1="95" y1="70" x2="125" y2="70" stroke="#4c4f69" stroke-width="3" stroke-linecap="round" opacity="0.6"/>
  <polygon points="120,65 132,70 120,75" fill="#4c4f69" opacity="0.8"/>
  
  <!-- The Prism -->
  <polygon points="160,25 200,115 120,115" fill="url(#prismGradient)" opacity="0.95"/>
  <polygon points="160,25 200,115 120,115" fill="none" stroke="#4c4f69" stroke-width="1" opacity="0.4"/>
  
  <!-- Rainbow rays -->
  <line x1="185" y1="55" x2="235" y2="28" stroke="#40a02b" stroke-width="5" stroke-linecap="round"/>
  <line x1="190" y1="70" x2="240" y2="52" stroke="#179299" stroke-width="5" stroke-linecap="round"/>
  <line x1="193" y1="82" x2="243" y2="76" stroke="#df8e1d" stroke-width="5" stroke-linecap="round"/>
  <line x1="195" y1="93" x2="245" y2="100" stroke="#fe640b" stroke-width="5" stroke-linecap="round"/>
  <line x1="197" y1="103" x2="245" y2="122" stroke="#d20f39" stroke-width="5" stroke-linecap="round"/>
  
  <!-- Text: TERRA -->
  <text x="265" y="65" font-family="Arial, sans-serif" font-size="32" font-weight="bold" fill="#4c4f69">TERRA</text>
  
  <!-- Text: PRISM -->
  <text x="265" y="100" font-family="Arial, sans-serif" font-size="32" font-weight="300" fill="#6c6f85">PRISM</text>
  
  <!-- Action legend -->
  <text x="385" y="40" font-family="Courier, monospace" font-size="11" fill="#40a02b">+ create</text>
  <text x="385" y="56" font-family="Courier, monospace" font-size="11" fill="#df8e1d">~ update</text>
  <text x="385" y="72" font-family="Courier, monospace" font-size="11" fill="#d20f39">- destroy</text>
  <text x="385" y="88" font-family="Courier, monospace" font-size="11" fill="#8839ef">± replace</text>
  <text x="385" y="104" font-family="Courier, monospace" font-size="11" fill="#209fb5">≤ read</text>
</svg>
