<svg xmlns="http://www.w3.org/2000/svg" viewBox="0 0 500 140">
  <defs>
    <!-- Gradient for the prism -->
    <linearGradient id="prismGradient" x1="0%" y1="0%" x2="100%" y2="100%">
      <stop offset="0%" style="stop-color:#89b4fa;stop-opacity:1" />
      <stop offset="100%" style="stop-color:#cba6f7;stop-opacity:1" />
    </linearGradient>
    
    <!-- Rainbow gradient -->
    <linearGradient id="rainbow" x1="0%" y1="0%" x2="0%" y2="100%">
      <stop offset="0%" style="stop-color:#a6e3a1" />
      <stop offset="33%" style="stop-color:#f9e2af" />
      <stop offset="66%" style="stop-color:#f38ba8" />
      <stop offset="100%" style="stop-color:#cba6f7" />
    </linearGradient>
    
    <!-- Glow effect -->
    <filter id="glow" x="-50%" y="-50%" width="200%" height="200%">
      <feGaussianBlur stdDeviation="2" result="coloredBlur"/>
      <feMerge>
        <feMergeNode in="coloredBlur"/>
        <feMergeNode in="SourceGraphic"/>
      </feMerge>
    </filter>
  </defs>
  
  <!-- Dark Background -->
  <rect width="500" height="140" fill="#1e1e2e" rx="10"/>
  
  <!-- Terraform-style Logo (simplified T shape) -->
  <g transform="translate(25, 30)">
    <!-- TF Logo inspired shape - purple like Terraform -->
    <polygon points="0,0 25,15 25,55 0,40" fill="#844fba" opacity="0.9"/>
    <polygon points="30,18 55,33 55,73 30,58" fill="#844fba" opacity="0.7"/>
    <polygon points="30,0 55,15 55,15 30,0" fill="#844fba" opacity="0.5"/>
    <polygon points="30,0 55,15 55,55 30,40" fill="#5c4ee5" opacity="0.9"/>
  </g>
  
  <!-- Arrow/beam going into prism -->
  <line x1="95" y1="70" x2="130" y2="70" stroke="#cdd6f4" stroke-width="3" stroke-linecap="round" opacity="0.6"/>
  <polygon points="125,65 135,70 125,75" fill="#cdd6f4" opacity="0.8"/>
  
  <!-- The Prism (triangle) -->
  <polygon points="160,25 200,115 120,115" fill="url(#prismGradient)" filter="url(#glow)" opacity="0.95"/>
  <polygon points="160,25 200,115 120,115" fill="none" stroke="#cdd6f4" stroke-width="1" opacity="0.4"/>
  
  <!-- Rainbow rays coming out of prism -->
  <line x1="185" y1="55" x2="230" y2="30" stroke="#a6e3a1" stroke-width="4" stroke-linecap="round" filter="url(#glow)"/>
  <line x1="190" y1="70" x2="235" y2="55" stroke="#94e2d5" stroke-width="4" stroke-linecap="round" filter="url(#glow)"/>
  <line x1="193" y1="82" x2="238" y2="77" stroke="#f9e2af" stroke-width="4" stroke-linecap="round" filter="url(#glow)"/>
  <line x1="195" y1="93" x2="240" y2="98" stroke="#fab387" stroke-width="4" stroke-linecap="round" filter="url(#glow)"/>
  <line x1="197" y1="103" x2="240" y2="118" stroke="#f38ba8" stroke-width="4" stroke-linecap="round" filter="url(#glow)"/>
  
  <!-- Text: TERRA-PRISM -->
  <text x="260" y="62" font-family="system-ui, -apple-system, 'Segoe UI', Roboto, sans-serif" font-size="28" font-weight="700" fill="#cdd6f4">
    TERRA
  </text>
  <text x="260" y="95" font-family="system-ui, -apple-system, 'Segoe UI', Roboto, sans-serif" font-size="28" font-weight="300" fill="#a6adc8">
    PRISM
  </text>
  
  <!-- Action symbols legend -->
  <g transform="translate(370, 35)" font-family="monospace" font-size="11">
    <text x="0" y="0" fill="#a6e3a1">+ create</text>
    <text x="0" y="18" fill="#f9e2af">~ update</text>
    <text x="0" y="36" fill="#f38ba8">- destroy</text>
    <text x="0" y="54" fill="#cba6f7">± replace</text>
    <text x="0" y="72" fill="#74c7ec">≤ read</text>
  </g>
</svg>
