<svg xmlns="http://www.w3.org/2000/svg" viewBox="0 0 500 140">
  <defs>
    <linearGradient id="prismGradient" x1="0%" y1="0%" x2="100%" y2="100%">
      <stop offset="0%" stop-color="#89b4fa"/>
      <stop offset="100%" stop-color="#cba6f7"/>
    </linearGradient>
  </defs>
  
  <!-- Dark Background -->
  <rect width="500" height="140" fill="#1e1e2e" rx="10"/>
  
  <!-- Terraform-style Logo -->
  <g transform="translate(25, 30)">
    <polygon points="0,0 25,15 25,55 0,40" fill="#844fba" opacity="0.9"/>
    <polygon points="30,18 55,33 55,73 30,58" fill="#844fba" opacity="0.7"/>
    <polygon points="30,0 55,15 55,55 30,40" fill="#5c4ee5" opacity="0.9"/>
  </g>
  
  <!-- Arrow going into prism -->
  <line x1="95" y1="70" x2="125" y2="70" stroke="#cdd6f4" stroke-width="3" stroke-linecap="round" opacity="0.6"/>
  <polygon points="120,65 132,70 120,75" fill="#cdd6f4" opacity="0.8"/>
  
  <!-- The Prism -->
  <polygon points="160,25 200,115 120,115" fill="url(#prismGradient)" opacity="0.95"/>
  <polygon points="160,25 200,115 120,115" fill="none" stroke="#cdd6f4" stroke-width="1" opacity="0.4"/>
  
  <!-- Rainbow rays -->
  <line x1="185" y1="55" x2="235" y2="28" stroke="#a6e3a1" stroke-width="5" stroke-linecap="round"/>
  <line x1="190" y1="70" x2="240" y2="52" stroke="#94e2d5" stroke-width="5" stroke-linecap="round"/>
  <line x1="193" y1="82" x2="243" y2="76" stroke="#f9e2af" stroke-width="5" stroke-linecap="round"/>
  <line x1="195" y1="93" x2="245" y2="100" stroke="#fab387" stroke-width="5" stroke-linecap="round"/>
  <line x1="197" y1="103" x2="245" y2="122" stroke="#f38ba8" stroke-width="5" stroke-linecap="round"/>
  
  <!-- Text: TERRA -->
  <text x="265" y="65" font-family="Arial, sans-serif" font-size="32" font-weight="bold" fill="#cdd6f4">TERRA</text>
  
  <!-- Text: PRISM -->
  <text x="265" y="100" font-family="Arial, sans-serif" font-size="32" font-weight="300" fill="#a6adc8">PRISM</text>
  
  <!-- Action legend -->
  <text x="385" y="40" font-family="Courier, monospace" font-size="11" fill="#a6e3a1">+ create</text>
  <text x="385" y="56" font-family="Courier, monospace" font-size="11" fill="#f9e2af">~ update</text>
  <text x="385" y="72" font-family="Courier, monospace" font-size="11" fill="#f38ba8">- destroy</text>
  <text x="385" y="88" font-family="Courier, monospace" font-size="11" fill="#cba6f7">± replace</text>
  <text x="385" y="104" font-family="Courier, monospace" font-size="11" fill="#74c7ec">≤ read</text>
</svg>
