<svg xmlns="http://www.w3.org/2000/svg" viewBox="0 0 500 140">
  <defs>
    <linearGradient id="prismGradient" x1="0%" y1="0%" x2="100%" y2="100%">
      <stop offset="0%" stop-color="#1e66f5"/>
      <stop offset="100%" stop-color="#8839ef"/>
    </linearGradient>
  </defs>
  
  <!-- Light Background -->
  <rect width="500" height="140" fill="#eff1f5" rx="10"/>
  
  <!-- Official Terraform Logo (T shape with 3 parallelograms) -->
  <g transform="translate(20, 25) scale(0.85)">
    <!-- Left vertical bar (2 stacked pieces) -->
    <path d="M0 0 L35 20 L35 60 L0 40 Z" fill="#5c4ee5"/>
    <path d="M0 45 L35 65 L35 105 L0 85 Z" fill="#5c4ee5"/>
    
    <!-- Right top piece -->
    <path d="M40 23 L75 43 L75 83 L40 63 Z" fill="#844fba"/>
    
    <!-- Top horizontal piece -->
    <path d="M40 0 L75 20 L75 20 L40 0 Z" fill="#4040b2"/>
    <path d="M40 0 L75 20 L75 40 L40 20 Z" fill="#7b42bc"/>
  </g>
  
  <!-- Arrow going into prism -->
  <line x1="100" y1="70" x2="130" y2="70" stroke="#4c4f69" stroke-width="3" stroke-linecap="round" opacity="0.6"/>
  <polygon points="125,65 137,70 125,75" fill="#4c4f69" opacity="0.8"/>
  
  <!-- The Prism -->
  <polygon points="165,25 205,115 125,115" fill="url(#prismGradient)" opacity="0.95"/>
  <polygon points="165,25 205,115 125,115" fill="none" stroke="#4c4f69" stroke-width="1" opacity="0.4"/>
  
  <!-- Rainbow rays -->
  <line x1="190" y1="55" x2="240" y2="28" stroke="#40a02b" stroke-width="5" stroke-linecap="round"/>
  <line x1="195" y1="70" x2="245" y2="52" stroke="#179299" stroke-width="5" stroke-linecap="round"/>
  <line x1="198" y1="82" x2="248" y2="76" stroke="#df8e1d" stroke-width="5" stroke-linecap="round"/>
  <line x1="200" y1="93" x2="250" y2="100" stroke="#fe640b" stroke-width="5" stroke-linecap="round"/>
  <line x1="202" y1="103" x2="250" y2="122" stroke="#d20f39" stroke-width="5" stroke-linecap="round"/>
  
  <!-- Text: TERRA -->
  <text x="270" y="65" font-family="Arial, sans-serif" font-size="32" font-weight="bold" fill="#4c4f69">TERRA</text>
  
  <!-- Text: PRISM -->
  <text x="270" y="100" font-family="Arial, sans-serif" font-size="32" font-weight="300" fill="#6c6f85">PRISM</text>
  
  <!-- Action legend -->
  <text x="390" y="40" font-family="Courier, monospace" font-size="11" fill="#40a02b">+ create</text>
  <text x="390" y="56" font-family="Courier, monospace" font-size="11" fill="#df8e1d">~ update</text>
  <text x="390" y="72" font-family="Courier, monospace" font-size="11" fill="#d20f39">- destroy</text>
  <text x="390" y="88" font-family="Courier, monospace" font-size="11" fill="#8839ef">± replace</text>
  <text x="390" y="104" font-family="Courier, monospace" font-size="11" fill="#209fb5">≤ read</text>
</svg>
